<svg width="730" height="730" viewBox="0 0 730 730" fill="none" xmlns="http://www.w3.org/2000/svg">
<rect width="730" height="730" rx="197" fill="#666C6C"/>
<g filter="url(#filter0_d_1453_361)">
<path fill-rule="evenodd" clip-rule="evenodd" d="M632.963 496C652.206 456.418 663 411.97 663 365C663 321.061 653.554 279.328 636.581 241.721C625.372 253.167 612.216 267.12 603.5 276.5V496H632.963ZM500 496H486V318C486 314.686 483.314 312 480 312H443C439.686 312 437 314.686 437 318V421.5L413 397.5V496H394V389C400.8 286.6 480.833 240.667 520 230.5L584.137 162.27L584.182 162.318L599.5 147L577.5 127.5L667 104.5L654.5 194.5L633 175L622.556 186.556L622.5 186.5L553 261.5V393L546.5 389.5L546 389.54V330C546 326.686 543.314 324 540 324H506C502.686 324 500 326.686 500 330V496ZM504.5 181L551.864 131.898C500.296 90.0658 434.575 65 363 65C197.315 65 63 199.315 63 365C63 411.97 73.7941 456.418 93.0371 496H117.5V432.5L149 464V392C149 388.686 151.686 386 155 386H192C195.314 386 198 388.686 198 392V458L216.5 476.5L217 476.152V352C217 348.686 219.686 346 223 346H260C263.314 346 266 348.686 266 352V442C286 431.167 332.8 391.1 360 317.5C394 225.5 486.5 187.5 504.5 181ZM332.5 496H316V465.5L332.5 453.5V496ZM106.092 520C110.662 527.558 115.555 534.897 120.754 542L605.246 542C610.445 534.897 615.339 527.558 619.908 520L106.092 520ZM163.436 589C155.311 581.757 147.583 574.078 140.288 566L585.712 566C578.417 574.078 570.689 581.756 562.564 589L163.436 589ZM194.141 613C242.241 645.814 300.38 665 363 665C425.62 665 483.759 645.814 531.859 613L194.141 613Z" fill="#F5F5F5"/>
</g>
<defs>
<filter id="filter0_d_1453_361" x="59" y="65" width="612" height="608" filterUnits="userSpaceOnUse" color-interpolation-filters="sRGB">
<feFlood flood-opacity="0" result="BackgroundImageFix"/>
<feColorMatrix in="SourceAlpha" type="matrix" values="0 0 0 0 0 0 0 0 0 0 0 0 0 0 0 0 0 0 127 0" result="hardAlpha"/>
<feOffset dy="4"/>
<feGaussianBlur stdDeviation="2"/>
<feComposite in2="hardAlpha" operator="out"/>
<feColorMatrix type="matrix" values="0 0 0 0 0 0 0 0 0 0 0 0 0 0 0 0 0 0 0.25 0"/>
<feBlend mode="normal" in2="BackgroundImageFix" result="effect1_dropShadow_1453_361"/>
<feBlend mode="normal" in="SourceGraphic" in2="effect1_dropShadow_1453_361" result="shape"/>
</filter>
</defs>
</svg>
