<svg width="64" height="64" viewBox="0 0 64 64" fill="none" xmlns="http://www.w3.org/2000/svg">
<path d="M0 25.6C0 16.6392 0 12.1587 1.7439 8.73615C3.27787 5.72556 5.72556 3.27787 8.73615 1.7439C12.1587 0 16.6392 0 25.6 0H38.4039C47.3647 0 51.8452 0 55.2678 1.7439C58.2783 3.27787 60.726 5.72556 62.26 8.73615C64.0039 12.1587 64.0039 16.6392 64.0039 25.6V38.4039C64.0039 47.3647 64.0039 51.8452 62.26 55.2678C60.726 58.2783 58.2783 60.726 55.2678 62.26C51.8452 64.0039 47.3647 64.0039 38.4039 64.0039H25.6C16.6392 64.0039 12.1587 64.0039 8.73615 62.26C5.72556 60.726 3.27787 58.2783 1.7439 55.2678C0 51.8452 0 47.3647 0 38.4039V25.6Z" fill="#111A1B"/>
<path d="M55.4961 43.4878C57.1832 40.0174 58.1296 36.1203 58.1296 32.0022C58.1296 28.1498 57.3014 24.4908 55.8133 21.1935C54.8306 22.1971 53.6771 23.4204 52.9129 24.2428V43.4878H55.4961Z" fill="#F5F5F5"/>
<path d="M43.8383 43.4878H42.6109V27.8814C42.6109 27.5909 42.3754 27.3553 42.0848 27.3553H38.8408C38.5502 27.3553 38.3147 27.5909 38.3147 27.8814V36.9559L36.2105 34.8517V43.4878H34.5446V34.1064C35.1408 25.1284 42.1579 21.1011 45.5919 20.2097L51.2152 14.2275L51.2191 14.2318L52.5622 12.8887L50.6333 11.179L58.4803 9.16244L57.3844 17.0533L55.4993 15.3436L54.5836 16.3568L54.5787 16.3519L48.4852 22.9277V34.4571L47.9153 34.1503L47.8715 34.1538V28.9335C47.8715 28.643 47.6359 28.4075 47.3454 28.4075H44.3644C44.0739 28.4075 43.8383 28.643 43.8383 28.9335V43.4878Z" fill="#F5F5F5"/>
<path d="M44.2329 15.8697L48.3856 11.5646C43.8643 7.89691 38.1021 5.69922 31.8267 5.69922C17.2999 5.69922 5.52368 17.4755 5.52368 32.0022C5.52368 36.1203 6.47007 40.0174 8.15723 43.4878H10.3021V37.9204L13.0639 40.6822V34.3695C13.0639 34.0789 13.2994 33.8434 13.5899 33.8434H16.834C17.1245 33.8434 17.36 34.0789 17.36 34.3695V40.1561L18.982 41.7781L19.0259 41.7476V30.8624C19.0259 30.5719 19.2614 30.3363 19.5519 30.3363H22.796C23.0865 30.3363 23.322 30.5719 23.322 30.8624V38.7533C25.0756 37.8035 29.1788 34.2906 31.5636 27.8376C34.5446 19.7713 42.6547 16.4396 44.2329 15.8697Z" fill="#F5F5F5"/>
<path d="M29.1525 43.4878H27.7059V40.8137L29.1525 39.7616V43.4878Z" fill="#F5F5F5"/>
<path d="M9.30184 45.5921C9.70248 46.2547 10.1315 46.8982 10.5873 47.521L53.066 47.5209C53.5218 46.8982 53.9508 46.2547 54.3515 45.5921L9.30184 45.5921Z" fill="#F5F5F5"/>
<path d="M14.3296 51.6418C13.6172 51.0067 12.9396 50.3334 12.3001 49.6252L51.3533 49.6252C50.7137 50.3334 50.0361 51.0067 49.3238 51.6417L14.3296 51.6418Z" fill="#F5F5F5"/>
<path d="M17.0217 53.746C21.2389 56.623 26.3363 58.3052 31.8267 58.3052C37.317 58.3052 42.4144 56.623 46.6317 53.746L17.0217 53.746Z" fill="#F5F5F5"/>
</svg>
