<svg width="606" height="606" viewBox="0 0 606 606" fill="none" xmlns="http://www.w3.org/2000/svg">
<rect width="603" height="603" fill="#F3F4F7"/>
<rect x="307" y="22" width="198" height="177" fill="#6AC3DD"/>
<path d="M115 302H208V567H115V302Z" fill="#6AC3DD"/>
<rect x="328" y="409" width="146" height="94" fill="#6AC3DD"/>
<path d="M32 457H111.926V583.106H32V457Z" fill="#FF9B91"/>
<rect x="128" y="31" width="80" height="111" fill="#FFC549"/>
<rect x="223" y="457" width="80" height="138" fill="#FFC549"/>
<rect x="103" y="150" width="126" height="64" fill="#6AC3DD"/>
<rect x="21.5" y="21.5" width="563" height="563" stroke="#1F222E" stroke-width="43"/>
<line x1="310" x2="310" y2="603" stroke="#1F222E" stroke-width="40"/>
<circle cx="505.5" cy="110.5" r="72.5" fill="#FF9B91" stroke="#1F222E" stroke-width="32"/>
<line x1="602.944" y1="202" x2="301" y2="202" stroke="#1F222E" stroke-width="40"/>
<rect x="403.75" y="297.75" width="190.5" height="23.5" stroke="#1F222E" stroke-width="23.5"/>
<rect x="309.5" y="416.5" width="172" height="67" stroke="#1F222E" stroke-width="39"/>
<rect x="123" y="22" width="86" height="180" stroke="#1F222E" stroke-width="40"/>
<path d="M210.5 457V306H122C122 306 122 357.334 122 390.5C122 416.303 122 457 122 457M210.5 457H314.5M210.5 457V581M122 457H24.5M122 457V581" stroke="#1F222E" stroke-width="40"/>
<line x1="142" y1="146" x2="190" y2="146" stroke="#1F222E" stroke-width="18"/>
<line x1="392" y1="146" x2="416" y2="146" stroke="#1F222E" stroke-width="18"/>
<line x1="552" y1="180" x2="576" y2="180" stroke="#1F222E" stroke-width="18"/>
<line x1="29" y1="306" x2="298" y2="306" stroke="#1F222E" stroke-width="40"/>
</svg>
