<svg width="606" height="606" viewBox="0 0 606 606" fill="none" xmlns="http://www.w3.org/2000/svg">
<rect width="603" height="603" fill="white"/>
<rect x="307" y="22" width="145" height="177" fill="#2A97B7"/>
<path d="M115 302H208V567H115V302Z" fill="#2A97B7"/>
<rect x="328" y="409" width="146" height="94" fill="#2A97B7"/>
<path d="M32 457H111.926V583.106H32V457Z" fill="#FF6C5E"/>
<rect x="128" y="31" width="80" height="111" fill="#FFC549"/>
<rect x="223" y="457" width="80" height="138" fill="#FFC549"/>
<rect x="103" y="150" width="126" height="64" fill="#2A97B7"/>
<rect x="21.5" y="21.5" width="563" height="563" stroke="#142934" stroke-width="43"/>
<line x1="310" x2="310" y2="603" stroke="#142934" stroke-width="40"/>
<circle cx="505.5" cy="110.5" r="72.5" fill="#FF6C5E" stroke="#142934" stroke-width="32"/>
<line x1="602.944" y1="202" x2="301" y2="202" stroke="#142934" stroke-width="40"/>
<rect x="403.75" y="297.75" width="190.5" height="23.5" stroke="#172A33" stroke-width="23.5"/>
<rect x="309.5" y="416.5" width="172" height="67" stroke="#172A33" stroke-width="39"/>
<rect x="123" y="22" width="86" height="180" stroke="#172A33" stroke-width="40"/>
<path d="M314.5 457H210.5V306H122C122 306 122 357.334 122 390.5C122 416.303 122 457 122 457H24.5" stroke="#142934" stroke-width="40"/>
<line x1="142" y1="146" x2="190" y2="146" stroke="#172A33" stroke-width="18"/>
<line x1="121.5" y1="477" x2="121.5" y2="603" stroke="#142934" stroke-width="41"/>
<line x1="210.5" y1="477" x2="210.5" y2="603" stroke="#142934" stroke-width="41"/>
<line x1="392" y1="146" x2="416" y2="146" stroke="#142934" stroke-width="18"/>
<line x1="552" y1="180" x2="576" y2="180" stroke="#142934" stroke-width="18"/>
<line x1="29" y1="306" x2="298" y2="306" stroke="#142934" stroke-width="40"/>
</svg>
